<svg width="30" height="31" viewBox="0 0 30 31" fill="none" xmlns="http://www.w3.org/2000/svg">
<path d="M23.2468 29.8791C23.0623 29.8836 22.8793 29.8371 22.7188 29.7441L15.0118 25.6851L8.22584 29.3391C7.11884 29.9391 5.73284 29.5281 5.13284 28.4196C5.12534 28.4061 5.11784 28.3926 5.11034 28.3776C4.87484 27.9141 4.79234 27.3906 4.87334 26.8776L6.19334 19.0866L0.676338 13.5006C-0.225161 12.5706 -0.225161 11.0916 0.676338 10.1601C1.02734 9.79107 1.49234 9.55257 1.99634 9.48357L9.56084 8.33457L12.9253 1.32507C13.4488 0.185067 14.7973 -0.315933 15.9388 0.207567C16.4338 0.434067 16.8298 0.831567 17.0563 1.32507L20.4358 8.35857L28.0258 9.52107C28.6393 9.61257 29.1898 9.95157 29.5498 10.4571C30.2218 11.4231 30.1198 12.7281 29.3068 13.5786L23.8153 19.0986L24.5803 23.2971C24.6868 23.9271 24.2713 24.5286 23.6428 24.6471C23.0248 24.7581 22.4338 24.3471 22.3228 23.7276L21.5443 19.5291C21.4138 18.7596 21.6583 17.9736 22.2043 17.4171L27.7093 11.8581L20.1193 10.6806C19.3498 10.5561 18.6973 10.0461 18.3898 9.33057L15.0118 2.32707L11.5918 9.44157C11.2843 10.1586 10.6318 10.6671 9.86234 10.7916L2.29784 11.9406L7.76234 17.4906C8.30684 18.0381 8.55134 18.8136 8.42234 19.5741L7.10234 27.3651L13.8868 23.7261C14.5588 23.3481 15.3793 23.3481 16.0513 23.7261L23.7478 27.7851C24.2173 28.0416 24.4558 28.5831 24.3283 29.1036C24.2113 29.6241 23.7523 29.9946 23.2198 30.0036L23.2468 29.8791Z" fill="#446DF6"/>
</svg>
